<svg aria-hidden="true" style="position: absolute; width: 0; height: 0; overflow: hidden;" version="1.1" xmlns="http://www.w3.org/2000/svg" xmlns:xlink="http://www.w3.org/1999/xlink">
<defs>
<symbol id="icon-facebook" viewBox="0 0 18 32">
<path d="M11.869 32v-14.597h5.391l0.807-5.689h-6.198v-3.632c0-1.647 0.503-2.769 3.102-2.769l3.315-0.001v-5.088c-0.573-0.069-2.541-0.224-4.83-0.224-4.779 0-8.051 2.651-8.051 7.519v4.195h-5.405v5.689h5.405v14.597l6.464-0z"></path>
</symbol>
<symbol id="icon-twit" viewBox="0 0 38 32">
<path d="M17.955 9.035l0.080 1.353-1.336-0.166c-4.863-0.635-9.111-2.79-12.718-6.408l-1.763-1.795-0.454 1.326c-0.962 2.955-0.347 6.076 1.657 8.175 1.069 1.16 0.828 1.326-1.015 0.635-0.641-0.221-1.202-0.387-1.256-0.304-0.187 0.193 0.454 2.707 0.962 3.701 0.695 1.381 2.111 2.734 3.66 3.535l1.309 0.635-1.55 0.028c-1.496 0-1.55 0.028-1.389 0.608 0.534 1.795 2.645 3.701 4.996 4.529l1.657 0.58-1.443 0.884c-2.137 1.27-4.649 1.988-7.161 2.044-1.202 0.028-2.191 0.138-2.191 0.221 0 0.276 3.26 1.823 5.157 2.43 5.691 1.795 12.451 1.022 17.527-2.044 3.607-2.182 7.214-6.518 8.897-10.716 0.908-2.237 1.817-6.325 1.817-8.286 0-1.27 0.080-1.436 1.576-2.955 0.882-0.884 1.71-1.85 1.87-2.127 0.267-0.525 0.24-0.525-1.122-0.055-2.271 0.829-2.592 0.718-1.47-0.525 0.828-0.884 1.817-2.486 1.817-2.955 0-0.083-0.401 0.055-0.855 0.304-0.481 0.276-1.55 0.69-2.351 0.939l-1.443 0.47-1.309-0.911c-0.721-0.497-1.737-1.050-2.271-1.215-1.363-0.387-3.447-0.331-4.676 0.11-3.34 1.243-5.451 4.447-5.21 7.954z"></path>
</symbol>
<symbol id="icon-youtube" viewBox="0 0 48 32">
<path d="M41.882 0.979c-3.576-0.979-17.882-0.979-17.882-0.979s-14.306 0-17.882 0.941c-1.92 0.527-3.501 2.108-4.028 4.066-0.941 3.576-0.941 10.993-0.941 10.993s0 7.454 0.941 10.993c0.527 1.958 2.071 3.501 4.028 4.028 3.614 0.979 17.882 0.979 17.882 0.979s14.306 0 17.882-0.941c1.958-0.527 3.501-2.071 4.028-4.028 0.941-3.576 0.941-10.993 0.941-10.993s0.038-7.454-0.941-11.030c-0.527-1.958-2.071-3.501-4.028-4.028zM31.341 16l-11.896 6.852v-13.703l11.896 6.852z"></path>
</symbol>
<symbol id="icon-instagram" viewBox="0 0 32 32">
<path d="M16 2.881c4.275 0 4.781 0.019 6.462 0.094 1.563 0.069 2.406 0.331 2.969 0.55 0.744 0.288 1.281 0.638 1.837 1.194 0.563 0.563 0.906 1.094 1.2 1.838 0.219 0.563 0.481 1.412 0.55 2.969 0.075 1.688 0.094 2.194 0.094 6.463s-0.019 4.781-0.094 6.463c-0.069 1.563-0.331 2.406-0.55 2.969-0.288 0.744-0.637 1.281-1.194 1.837-0.563 0.563-1.094 0.906-1.837 1.2-0.563 0.219-1.413 0.481-2.969 0.55-1.688 0.075-2.194 0.094-6.463 0.094s-4.781-0.019-6.463-0.094c-1.563-0.069-2.406-0.331-2.969-0.55-0.744-0.288-1.281-0.637-1.838-1.194-0.563-0.563-0.906-1.094-1.2-1.837-0.219-0.563-0.481-1.413-0.55-2.969-0.075-1.688-0.094-2.194-0.094-6.463s0.019-4.781 0.094-6.463c0.069-1.563 0.331-2.406 0.55-2.969 0.288-0.744 0.638-1.281 1.194-1.838 0.563-0.563 1.094-0.906 1.838-1.2 0.563-0.219 1.412-0.481 2.969-0.55 1.681-0.075 2.188-0.094 6.463-0.094zM16 0c-4.344 0-4.887 0.019-6.594 0.094-1.7 0.075-2.869 0.35-3.881 0.744-1.056 0.412-1.95 0.956-2.837 1.85-0.894 0.888-1.438 1.781-1.85 2.831-0.394 1.019-0.669 2.181-0.744 3.881-0.075 1.713-0.094 2.256-0.094 6.6s0.019 4.887 0.094 6.594c0.075 1.7 0.35 2.869 0.744 3.881 0.413 1.056 0.956 1.95 1.85 2.837 0.887 0.887 1.781 1.438 2.831 1.844 1.019 0.394 2.181 0.669 3.881 0.744 1.706 0.075 2.25 0.094 6.594 0.094s4.888-0.019 6.594-0.094c1.7-0.075 2.869-0.35 3.881-0.744 1.050-0.406 1.944-0.956 2.831-1.844s1.438-1.781 1.844-2.831c0.394-1.019 0.669-2.181 0.744-3.881 0.075-1.706 0.094-2.25 0.094-6.594s-0.019-4.887-0.094-6.594c-0.075-1.7-0.35-2.869-0.744-3.881-0.394-1.063-0.938-1.956-1.831-2.844-0.887-0.887-1.781-1.438-2.831-1.844-1.019-0.394-2.181-0.669-3.881-0.744-1.712-0.081-2.256-0.1-6.6-0.1v0z"></path>
<path d="M16 7.781c-4.537 0-8.219 3.681-8.219 8.219s3.681 8.219 8.219 8.219 8.219-3.681 8.219-8.219c0-4.537-3.681-8.219-8.219-8.219zM16 21.331c-2.944 0-5.331-2.387-5.331-5.331s2.387-5.331 5.331-5.331c2.944 0 5.331 2.387 5.331 5.331s-2.387 5.331-5.331 5.331z"></path>
<path d="M26.462 7.456c0 1.060-0.859 1.919-1.919 1.919s-1.919-0.859-1.919-1.919c0-1.060 0.859-1.919 1.919-1.919s1.919 0.859 1.919 1.919z"></path>
</symbol>
<symbol id="icon-untitled" viewBox="0 0 66 32">
<path d="M22.010 28.672c-1.035 0.64-2.357 1.158-3.964 1.553-1.594 0.395-3.215 0.593-4.863 0.593-3.732 0-6.641-0.892-8.725-2.677s-3.126-4.141-3.126-7.070c0-1.621 0.368-3.051 1.103-4.291 0.736-1.253 1.764-2.295 3.085-3.126-0.545-0.313-1.151-0.947-1.819-1.9-0.654-0.954-0.981-1.996-0.981-3.126 0-2.384 0.756-4.318 2.268-5.803 1.526-1.485 3.501-2.227 5.925-2.227 0.994 0 1.927 0.089 2.799 0.266 0.885 0.163 1.403 0.259 1.553 0.286v3.841h-0.204c-0.354-0.095-0.933-0.218-1.737-0.368-0.79-0.163-1.539-0.245-2.248-0.245-1.607 0-2.84 0.409-3.698 1.226-0.858 0.804-1.287 1.846-1.287 3.126 0 0.722 0.245 1.423 0.736 2.105s0.988 1.151 1.492 1.41l9.746-3.474v3.555l-8.663 3.044c-1.566 0.545-2.738 1.321-3.514 2.329-0.776 0.994-1.165 2.105-1.165 3.331 0 1.798 0.749 3.249 2.248 4.352 1.498 1.117 3.548 1.676 6.15 1.676 1.43 0 2.997-0.286 4.7-0.858 1.703-0.559 3.024-1.185 3.964-1.88h0.225v4.352zM42.483 22.154h-1.553c-0.422 0-0.892-0.061-1.41-0.184-0.518-0.136-0.981-0.313-1.39-0.531-0.504 1.962-1.294 3.583-2.37 4.863-1.062 1.294-2.302 2.282-3.719 2.963-1.417 0.613-2.622 1.022-3.616 1.226-0.994 0.218-2.125 0.327-3.392 0.327v-3.841c0.885 0 1.832-0.089 2.84-0.266 1.008-0.163 2.091-0.518 3.249-1.063 1.417-0.722 2.411-1.641 2.983-2.758 0.586-1.103 0.879-2.397 0.879-3.882 0-0.804-0.109-1.601-0.327-2.391-0.218-0.804-0.463-1.505-0.736-2.105s-0.545-1.124-0.817-1.573c-0.272-0.463-0.497-0.824-0.674-1.083v-0.245h3.944c0.082 0.15 0.286 0.593 0.613 1.328s0.613 1.396 0.858 1.982c0.518 1.199 1.103 2.064 1.757 2.595s1.403 0.797 2.248 0.797h0.633v3.841zM57.174 22.154h-2.391c-0.845 0-1.778-0.225-2.799-0.674-1.008-0.45-1.737-1.063-2.186-1.839-0.477 0.804-1.192 1.423-2.145 1.859s-1.88 0.654-2.779 0.654h-3.821v-3.841h2.901c1.226 0 2.221-0.422 2.983-1.267s1.144-2.043 1.144-3.596v-2.472h3.433v2.472c0 1.471 0.382 2.649 1.144 3.535 0.776 0.885 1.791 1.328 3.044 1.328h1.471v3.841zM50.575 28.672h-3.024v-3.024h3.024v3.024zM66.185 12.898c0 2.901-0.688 5.169-2.064 6.804s-3.269 2.452-5.68 2.452h-2.677v-3.841h2.779c1.39 0 2.445-0.497 3.167-1.492s1.083-2.384 1.083-4.168v-5.149h3.392v5.394zM59.851 28.488h-3.024v-3.024h3.024v3.024zM65.327 28.488h-3.024v-3.024h3.024v3.024z"></path>
</symbol>
<symbol id="icon-phone" viewBox="0 0 31 32">
<path d="M16.367 9.173c1.434 0.246 2.745 0.925 3.79 1.967 1.039 1.039 1.721 2.35 1.967 3.788 0.094 0.567 0.581 0.976 1.157 0.976 0.074 0 0.14-0.009 0.186-0.017 0.003 0 0.006 0 0.009-0.003 0.312-0.051 0.584-0.22 0.764-0.481 0.18-0.258 0.249-0.567 0.195-0.873-0.326-1.918-1.231-3.665-2.62-5.053-1.394-1.389-3.143-2.293-5.059-2.617h-0.003c-0.638-0.106-1.243 0.326-1.349 0.962-0.1 0.641 0.329 1.245 0.962 1.351l0 0z"></path>
<path d="M23.584 19.001c-0.641-0.667-1.417-1.019-2.244-1.019-0.819 0-1.6 0.346-2.256 1.005l-1.629 1.629c-0.040-0.020-0.080-0.040-0.117-0.060l-0.083-0.040c-0.175-0.089-0.375-0.189-0.541-0.292-1.672-1.062-3.198-2.454-4.669-4.257-0.63-0.793-1.071-1.466-1.394-2.136 0.409-0.386 0.79-0.773 1.148-1.139 0.080-0.080 0.16-0.163 0.243-0.246 0.080-0.083 0.163-0.166 0.246-0.249 0.681-0.681 1.042-1.472 1.039-2.285 0-0.81-0.361-1.598-1.039-2.273l-1.583-1.583c-0.092-0.092-0.183-0.183-0.272-0.275s-0.18-0.183-0.269-0.272l-0.126-0.129c-0.312-0.318-0.636-0.647-0.962-0.948-0.636-0.633-1.406-0.968-2.222-0.968-0.813 0-1.589 0.335-2.25 0.968-0.003 0.003-0.006 0.003-0.006 0.006l-1.984 1.981c-0.81 0.81-1.271 1.798-1.371 2.935v0.003c-0.106 1.346 0.137 2.766 0.767 4.469 0.953 2.577 2.385 4.964 4.501 7.512 2.582 3.078 5.683 5.505 9.213 7.215h0.003c1.36 0.65 3.186 1.411 5.248 1.546h0.023c0.117 0.006 0.241 0.011 0.369 0.011 1.446 0 2.665-0.524 3.622-1.557l0.014-0.014c0.012-0.011 0.020-0.020 0.029-0.031 0.286-0.344 0.616-0.661 0.985-1.017 0.255-0.243 0.515-0.492 0.767-0.761 0.65-0.679 0.994-1.469 0.991-2.285-0.003-0.819-0.352-1.6-1.011-2.259l-3.178-3.183zM23.269 26.98c-0.51 0.544-1.094 0.787-1.89 0.787-0.075 0-0.157-0.006-0.243-0.011-1.649-0.106-3.209-0.759-4.383-1.317-3.241-1.56-6.081-3.782-8.443-6.605-1.933-2.328-3.235-4.498-4.097-6.822-0.515-1.383-0.71-2.454-0.63-3.464 0.052-0.59 0.272-1.059 0.693-1.474l1.97-1.97c0.206-0.198 0.418-0.303 0.616-0.303 0.186 0 0.384 0.103 0.593 0.306 0.003 0.003 0.006 0.006 0.009 0.009 0.341 0.321 0.673 0.658 1.025 1.013l0.011 0.011c0.169 0.175 0.364 0.375 0.561 0.567l1.58 1.58c0.461 0.461 0.461 0.784 0 1.245-0.166 0.166-0.335 0.335-0.501 0.507l-0.117 0.12c-0.444 0.45-0.862 0.873-1.317 1.277-0.006 0.006-0.014 0.011-0.020 0.020l-0.029 0.029c-0.484 0.484-0.616 1.062-0.389 1.715 0.006 0.017 0.011 0.031 0.017 0.046 0.003 0.009 0.006 0.017 0.011 0.026 0.424 1.022 1.019 1.993 1.935 3.152 0 0.003 0.003 0.003 0.003 0.006 1.626 2.001 3.341 3.565 5.245 4.773 0.249 0.157 0.507 0.289 0.747 0.409 0.178 0.089 0.378 0.192 0.544 0.292 0.011 0.009 0.023 0.014 0.034 0.020l0.009 0.006c0.017 0.009 0.034 0.020 0.054 0.029 0.249 0.126 0.495 0.186 0.75 0.186 0.435 0 0.836-0.18 1.16-0.521l1.981-1.981c0.143-0.143 0.366-0.315 0.601-0.315 0.217 0 0.429 0.169 0.567 0.312 0.003 0.003 0.003 0.003 0.006 0.006l3.198 3.198c0.315 0.315 0.53 0.687-0.026 1.271l-0.003 0.003c-0.175 0.189-0.361 0.369-0.558 0.561-0.043 0.040-0.086 0.083-0.129 0.126-0.401 0.375-0.784 0.747-1.145 1.177l-0-0z"></path>
<path d="M29.414 14.3c-0.527-3.101-1.993-5.929-4.24-8.177-2.256-2.25-5.085-3.716-8.188-4.24-0.638-0.106-1.242 0.326-1.348 0.962-0.106 0.638 0.326 1.243 0.959 1.348 2.625 0.447 5.016 1.689 6.917 3.587 1.901 1.901 3.141 4.292 3.587 6.914 0.095 0.567 0.581 0.976 1.157 0.976h0.009c0.072 0 0.132-0.008 0.178-0.017 0.003 0 0.006 0 0.009-0.003 0.312-0.051 0.584-0.22 0.765-0.481 0.183-0.255 0.252-0.564 0.198-0.87l0 0z"></path>
</symbol>
<symbol id="icon-Person" viewBox="0 0 32 32">
<path fill="#d8d8d8" style="fill: var(--color1, #d8d8d8)" d="M16 0c8.837 0 16 7.163 16 16s-7.163 16-16 16c-8.837 0-16-7.163-16-16s7.163-16 16-16z"></path>
<path fill="#303030" style="fill: var(--color2, #303030)" d="M11.581 12.444c0-2.441 1.978-4.419 4.419-4.419s4.419 1.978 4.419 4.419c0 1.81-1.088 3.365-2.645 4.048 1.15 0.157 2.155 0.486 2.953 1.029 0.799 0.544 1.356 1.28 1.648 2.191 0.413-0.806 0.644-1.672 0.644-2.528 0-0.379 0.307-0.686 0.686-0.686s0.686 0.307 0.686 0.686c0 3.963-3.785 7.797-8.389 7.797s-8.389-3.834-8.389-7.797c0-0.379 0.307-0.686 0.686-0.686s0.686 0.307 0.686 0.686c0 0.856 0.23 1.721 0.644 2.528 0.292-0.911 0.848-1.646 1.648-2.191 0.798-0.544 1.802-0.872 2.953-1.029-1.557-0.683-2.645-2.239-2.645-4.048zM10.76 21.31c1.281 1.359 3.146 2.301 5.24 2.301s3.96-0.942 5.24-2.301c-0.006-1.267-0.476-2.102-1.285-2.654-0.858-0.585-2.179-0.903-3.955-0.903s-3.096 0.319-3.955 0.903c-0.809 0.552-1.28 1.387-1.285 2.654zM16 9.397c-1.683 0-3.048 1.364-3.048 3.048s1.364 3.048 3.048 3.048c1.683 0 3.048-1.365 3.048-3.048s-1.364-3.048-3.048-3.048z"></path>
</symbol>
<symbol id="icon-close" viewBox="0 0 20 20">
<path d="M10 8.586l-7.071-7.071-1.414 1.414 7.071 7.071-7.071 7.071 1.414 1.414 7.071-7.071 7.071 7.071 1.414-1.414-7.071-7.071 7.071-7.071-1.414-1.414-7.071 7.071z"></path>
</symbol>
<symbol id="icon-open" viewBox="0 0 35 32">
<path stroke-linejoin="miter" stroke-linecap="round" stroke-miterlimit="4" stroke-width="4.8" d="M12.8 9.6h19.2"></path>
<path stroke-linejoin="miter" stroke-linecap="round" stroke-miterlimit="4" stroke-width="4.8" d="M3.2 22.4h28.8"></path>
</symbol>
</defs>
</svg>
